<?xml version="1.0" encoding="UTF-8"?>
<svg width="22px" height="22px" viewBox="0 0 22 22" version="1.1" xmlns="http://www.w3.org/2000/svg" xmlns:xlink="http://www.w3.org/1999/xlink">
    <title>format_size-24px copy</title>
    <g id="Symbols" stroke="none" stroke-width="1" fill="none" fill-rule="evenodd">
        <g id="format_size-24px-copy">
            <polygon id="Path" points="0 0 22 0 22 22 0 22"></polygon>
            <path d="M8.25,5.04166667 C8.25,5.8025 8.86416667,6.41666667 9.625,6.41666667 L12.8333333,6.41666667 L12.8333333,16.0416667 C12.8333333,16.8025 13.4475,17.4166667 14.2083333,17.4166667 C14.9691667,17.4166667 15.5833333,16.8025 15.5833333,16.0416667 L15.5833333,6.41666667 L18.7916667,6.41666667 C19.5525,6.41666667 20.1666667,5.8025 20.1666667,5.04166667 C20.1666667,4.28083333 19.5525,3.66666667 18.7916667,3.66666667 L9.625,3.66666667 C8.86416667,3.66666667 8.25,4.28083333 8.25,5.04166667 Z" id="Path" fill="#1F2532"></path>
            <path d="M4.125,11 L5.5,11 L5.5,16.0416667 C5.5,16.8025 6.11416667,17.4166667 6.875,17.4166667 C7.63583333,17.4166667 8.25,16.8025 8.25,16.0416667 L8.25,11 L9.625,11 C10.3858333,11 11,10.3858333 11,9.625 C11,8.86416667 10.3858333,8.25 9.625,8.25 L4.125,8.25 C3.36416667,8.25 2.75,8.86416667 2.75,9.625 C2.75,10.3858333 3.36416667,11 4.125,11 Z" id="Path" fill="#8F9298" opacity="0.5"></path>
        </g>
    </g>
</svg>